<svg width="100" height="100" xmlns="http://www.w3.org/2000/svg">
 <defs>
  <linearGradient id="Unbenannter_Verlauf_10" x1="0.27015" y1="0.12237" x2="0.8299" y2="1.01915">
   <stop offset="0" stop-color="#dfbc68"/>
   <stop offset="0.23" stop-color="#dbb865"/>
   <stop offset="0.46" stop-color="#cfac5d"/>
   <stop offset="0.68" stop-color="#bb984f"/>
   <stop offset="0.91" stop-color="#a07c3c"/>
   <stop offset="0.99" stop-color="#947034"/>
  </linearGradient>
  <linearGradient id="svg_5" x1="0.27015" y1="0.12237" x2="0.8299" y2="1.01915">
   <stop offset="0" stop-color="#000000" stop-opacity="0.99609"/>
   <stop offset="0.23" stop-color="#0c0c0a" stop-opacity="0.99219"/>
   <stop offset="0.46" stop-color="#141009" stop-opacity="0.99219"/>
   <stop offset="0.68" stop-color="#070605" stop-opacity="0.99219"/>
   <stop offset="0.91" stop-color="#0c0904" stop-opacity="0.99609"/>
   <stop offset="0.99" stop-color="#070400" stop-opacity="0.99609"/>
  </linearGradient>
 </defs>
 <g>
  <title>Layer 1</title>
  <rect rx="5" fill="url(#svg_5)" stroke="null" x="0.00023" y="0.00022" width="100.27733" height="100.83288" id="svg_4"/>
  <path class="cls-2" d="m67.98651,0.97244c-0.51359,0 -1.02718,0 -1.52022,0l-0.06163,0c-16.20885,0.20543 -31.43161,6.67665 -42.83327,18.22211c-11.44274,11.56601 -17.72906,26.89148 -17.72906,43.16196c0,13.64091 4.37577,26.54224 12.63427,37.30706l2.40359,-1.7462c-4.08816,-5.99872 -7.21078,-15.572 -3.78001,-24.42626c3.08153,-7.92981 11.05242,-13.78471 23.09093,-16.98951l0,43.16197l2.97881,0l0,-43.88099c6.841,-1.49968 14.93515,-2.28033 24.05648,-2.28033c4.25251,0 8.27904,-1.00663 11.83307,-2.81446l0,48.95523l2.97882,0l0,-50.72198c6.92317,-4.74555 11.48383,-12.6959 11.48383,-21.69397c0,-14.31884 -11.19622,-25.86431 -25.49452,-26.27518m22.14593,22.28974l-4.80719,-3.65675l4.80719,3.65675zm-5.58785,-11.6071l-0.96554,7.72437l-7.68328,3.22533l-6.65611,-5.05371l1.04772,-8.27904l7.14915,-2.99935c2.73229,1.31478 5.13589,3.14316 7.12861,5.36186l-0.02055,0.02054zm-15.57199,7.9298l5.83436,4.43741l-0.12326,1.00663l0,0s-0.8012,6.26578 -0.8012,6.26578l-0.12326,1.00663l-0.945,0.39033l-5.81382,2.44468l-0.945,0.39033l-0.8012,-0.61631l-5.03317,-3.80055l-0.8012,-0.61631l0.12327,-1.00663l0.78065,-6.26578l0.12326,-1.00663l0.92446,-0.39033l5.81382,-2.44468c0.315,-0.13011 1.46332,6.96192 0.945,-0.39033l0.8012,0.61631l0.04109,-0.02055zm-0.55468,-2.62957l0,0s0,0 0,0l0,0zm-1.93109,-13.00405l0,0c0.20544,0 0.41087,0 0.63685,0l0.04109,0c0.22598,0 0.4725,0 0.67793,0c2.56794,0.08217 5.01262,0.55467 7.29296,1.37641l-5.5673,2.34197l-4.74556,-3.61567c0.55468,-0.06163 1.08881,-0.08217 1.66403,-0.10271zm2.03381,5.11534l-1.04772,8.27904l-7.70383,3.22533l-6.63556,-5.03316l0.96555,-7.6422c2.46522,-1.66402 5.25914,-2.85555 8.29959,-3.47185l6.12197,4.64284zm-24.59061,19.84505c-0.04109,-0.55468 -0.06163,-1.08881 -0.06163,-1.64348c0,-2.56795 0.41087,-5.03317 1.17098,-7.33405l7.04643,-2.97881l6.63556,5.03317l-1.02717,8.27904l-7.70383,3.24588l-6.06034,-4.60175zm5.01262,5.99871l-0.73956,5.85491c-1.97218,-2.75284 -3.3486,-5.95763 -3.96491,-9.42949l4.70447,3.57458zm2.46523,-19.59853l-5.48513,2.32142c1.43805,-3.20479 3.57458,-6.0398 6.24524,-8.2585l-0.76011,5.93708zm-10.10742,37.86173c-17.77016,4.21142 -24.48789,12.79862 -27.01475,19.26983c-1.4175,3.67729 -1.84891,7.4573 -1.60239,11.07297c-2.58849,-6.67665 -3.92382,-13.78471 -3.92382,-21.1393c0,-26.64496 18.16049,-49.36611 42.75109,-56.26873c-0.30815,0.22598 -0.63684,0.4725 -0.92445,0.71902c-0.16435,0.14381 -0.3287,0.26707 -0.47251,0.39033c-0.16434,0.1438 -0.30815,0.26706 -0.4725,0.41087c-0.45195,0.41087 -0.90391,0.84228 -1.33533,1.29424c-0.1438,0.14381 -0.28761,0.28761 -0.43141,0.45196c-0.55468,0.59576 -1.08881,1.23261 -1.58185,1.89c-0.10272,0.14381 -0.20544,0.26707 -0.30816,0.41087c-0.82174,1.10935 -1.5613,2.30088 -2.19815,3.53349c-0.12326,0.22598 -0.22598,0.45196 -0.3287,0.67794c-0.30815,0.6163 -0.55468,1.23261 -0.8012,1.86946c-0.06163,0.18489 -0.1438,0.34924 -0.20543,0.53413c-0.22598,0.61631 -0.43142,1.25316 -0.59577,1.89001c-0.06163,0.24652 -0.1438,0.51358 -0.18489,0.76011c-0.06163,0.18489 -0.10271,0.39032 -0.1438,0.59576c-0.02055,0.16435 -0.06163,0.3287 -0.10272,0.49304c-0.04109,0.22598 -0.08217,0.43142 -0.12326,0.63685c-0.04109,0.22598 -0.08217,0.43142 -0.10272,0.63685c-0.04109,0.24653 -0.06163,0.49305 -0.10272,0.73957c-0.06163,0.41087 -0.08217,0.8012 -0.12326,1.21207c0,0.16435 -0.02054,0.34924 -0.04108,0.51359l0,0.67793c-0.02055,0.26707 -0.04109,0.53414 -0.04109,0.82175c0,0.26706 0,0.51358 0,0.78065c0,0.18489 0,0.34924 0,0.51359c0,0 0,0.04108 0,0.06163c0.02054,0.45196 0.06163,0.88337 0.10272,1.33533c0,0.12326 0.02054,0.24652 0.04108,0.34924c0.04109,0.26706 0.06163,0.53413 0.10272,0.8012c0,0.06163 0,0.12326 0.02054,0.16434c0.04109,0.26707 0.08218,0.53414 0.14381,0.78066c0.04109,0.26706 0.10272,0.53413 0.1438,0.8012c0.14381,0.65739 0.30816,1.31478 0.51359,1.95163c0.08218,0.30815 0.18489,0.59576 0.28761,0.88337c0.20544,0.61631 0.43142,1.21207 0.69848,1.80783c0.10272,0.24653 0.22598,0.51359 0.34924,0.76011c0.14381,0.3287 0.30816,0.63685 0.4725,0.96555c0.12326,0.22598 0.22598,0.45196 0.36979,0.67794c0.1438,0.26706 0.28761,0.53413 0.45195,0.8012c0.30816,0.53413 0.63685,1.04772 0.98609,1.54076c0.36979,0.53413 0.76011,1.04772 1.17099,1.56131c0.16434,0.20543 0.32869,0.41087 0.51358,0.59576c1.17099,1.37642 2.50631,2.65012 3.96491,3.73892c0.22597,0.16435 0.43141,0.3287 0.65739,0.49305c0.04109,0.02054 0.08217,0.06163 0.12326,0.08217c0.22598,0.16435 0.4725,0.3287 0.69848,0.4725c0.20544,0.14381 0.43141,0.28761 0.63685,0.41087c0.43141,0.26707 0.88337,0.51359 1.31479,0.76012c0.18489,0.10271 0.36978,0.18489 0.55467,0.2876c0.18489,0.10272 0.36978,0.1849 0.57522,0.28761c0.02054,0 0.06163,0.04109 0.10272,0.04109c-5.34132,0.41087 -10.21014,1.15044 -14.60645,2.19816l0.02054,0zm8.44339,-10.4772l0.945,-7.56002l7.70383,-3.24588l6.63556,5.03317l-1.04772,8.27904l-7.04643,2.97881c-2.75284,-1.35587 -5.19752,-3.22533 -7.21078,-5.48512l0.02054,0zm17.44146,7.86817c-2.79392,0 -5.48512,-0.49304 -7.97089,-1.4175l5.48512,-2.30088l4.74556,3.59512c-0.73957,0.08217 -1.49968,0.10272 -2.23925,0.10272l-0.02054,0.02054zm12.98351,-3.9649c-2.46522,1.66402 -5.27969,2.85555 -8.29958,3.47186l-6.12198,-4.64284l1.04772,-8.27905l7.68328,-3.22533l6.63556,5.03316l-0.96554,7.6422l0.02054,0zm1.95164,-1.47914l0.73956,-5.93708l5.54676,-2.32142c-1.45859,3.22534 -3.63621,6.0398 -6.30687,8.27905l0.02055,-0.02055zm0.06163,-7.56002l-6.63556,-5.03316l1.04772,-8.27904l7.68328,-3.22534l6.16306,4.66338c0.04109,0.51359 0.06163,1.04772 0.06163,1.58186c0,2.54739 -0.41087,5.01262 -1.17098,7.31349l-7.12861,2.99936l-0.02054,-0.02055z" fill="url(#Unbenannter_Verlauf_10)" id="svg_3" stroke="null"/>
  <ellipse stroke="null" ry="23.47195" rx="23.88861" id="svg_7" cy="27.0836" cx="67.22203" fill="url(#svg_5)"/>
 </g>
</svg>