<?xml version="1.0" encoding="UTF-8"?><svg id="Ebene_2" xmlns="http://www.w3.org/2000/svg" xmlns:xlink="http://www.w3.org/1999/xlink" viewBox="0 0 250 100"><defs><style>.cls-1{fill:url(#Unbenannter_Verlauf_10-2);}.cls-2{fill:#111;}.cls-3{fill:url(#Unbenannter_Verlauf_10);}</style><linearGradient id="Unbenannter_Verlauf_10" x1="44.77" y1="23.82" x2="79.22" y2="85.96" gradientUnits="userSpaceOnUse"><stop offset="0" stop-color="#dfbc68"/><stop offset=".23" stop-color="#dbb865"/><stop offset=".46" stop-color="#cfac5d"/><stop offset=".68" stop-color="#bb984f"/><stop offset=".91" stop-color="#a07c3c"/><stop offset=".99" stop-color="#947034"/></linearGradient><linearGradient id="Unbenannter_Verlauf_10-2" x1="147.99" y1="23.06" x2="183.83" y2="85.13" xlink:href="#Unbenannter_Verlauf_10"/></defs><g id="Ebene_1-2"><g><rect class="cls-2" width="250" height="100"/><path class="cls-3" d="m71.76,15.36c-.35,0-.73,0-1.07,0h-.05c-11.38.15-22.06,4.69-30.07,12.79-8.03,8.12-12.45,18.88-12.45,30.29,0,9.57,3.07,18.63,8.87,26.19l1.69-1.22c-2.87-4.21-5.07-10.93-2.66-17.14,2.16-5.57,7.76-9.68,16.21-11.93v30.29h2.08v-30.8c4.8-1.06,10.48-1.59,16.88-1.59,2.99,0,5.81-.71,8.31-1.98v34.37h2.08v-35.6c4.86-3.33,8.05-8.91,8.05-15.23,0-10.05-7.86-18.15-17.9-18.44Zm12.73,8.83c1.43,1.98,2.42,4.29,2.84,6.8l-3.38-2.57.54-4.24Zm-1.08-1.34l-.68,5.42-5.4,2.27-4.67-3.54.73-5.81,5.02-2.11c1.91.92,3.6,2.21,5,3.77Zm-10.93,5.57l3.54,2.68.57.43-.09.71h0s-.56,4.4-.56,4.4l-.09.7-.66.28-4.08,1.72-.66.28-.57-.43-3.53-2.67-.57-.43.09-.71.55-4.4.09-.71.66-.28,4.09-1.72.66-.28.56.43Zm-.39-1.84h0s0,0,0,0h0Zm-1.36-9.13h0c.14,0,.29,0,.44,0h.03c.16,0,.33,0,.48,0,1.8.05,3.52.39,5.12.96l-3.9,1.64-3.34-2.53c.38-.04.77-.06,1.16-.07Zm1.43,3.59l-.73,5.81-5.4,2.27-4.66-3.54.67-5.36c1.73-1.17,3.7-2.01,5.83-2.44l4.3,3.26Zm-17.27,13.93c-.03-.38-.04-.77-.04-1.16,0-1.8.28-3.53.82-5.15l4.95-2.08,4.66,3.54-.73,5.81-5.41,2.27-4.26-3.23Zm3.51,4.21l-.51,4.12c-1.38-1.94-2.36-4.19-2.79-6.62l3.3,2.5Zm1.73-13.75l-3.85,1.62c1.01-2.25,2.51-4.24,4.38-5.8l-.53,4.17Zm-7.09,26.57c-12.47,2.95-17.19,8.99-18.96,13.53-1,2.58-1.3,5.23-1.12,7.77-1.82-4.68-2.75-9.68-2.75-14.84,0-18.71,12.74-34.65,30-39.49-.22.16-.44.33-.66.51-.12.09-.23.19-.33.28-.11.09-.22.19-.33.29-.32.29-.63.59-.94.9-.1.1-.2.21-.3.31-.4.42-.76.87-1.12,1.33-.07.1-.15.19-.21.29-.58.78-1.09,1.61-1.54,2.48-.09.16-.16.32-.23.48-.21.43-.39.87-.56,1.31-.05.12-.1.25-.14.38-.16.43-.3.88-.42,1.33-.05.18-.09.35-.14.53-.04.14-.07.28-.1.41-.02.12-.05.23-.07.35-.03.15-.06.3-.08.45-.02.15-.05.3-.07.45-.02.17-.05.34-.07.51-.04.29-.06.57-.08.86-.01.12-.02.24-.03.36v.47c-.02.19-.02.38-.02.57,0,.18,0,.36.01.54,0,.13,0,.25.01.37,0,.01,0,.02,0,.04.02.31.04.63.07.93,0,.08.02.17.02.25.02.19.05.37.08.56,0,.04.01.08.02.12.02.19.06.37.09.55.03.19.07.37.11.56.1.46.22.92.35,1.37.06.21.13.42.2.62.15.43.31.86.49,1.27.08.18.16.36.24.54.1.23.21.45.33.68.08.16.16.32.26.47.1.19.21.37.32.56.22.37.44.73.69,1.08.26.37.53.74.82,1.09.12.15.23.29.35.42.83.97,1.76,1.85,2.78,2.63.15.12.31.23.47.35.02.02.05.04.08.06.16.12.33.23.49.34.14.1.3.2.45.29.3.19.61.37.93.54.12.07.26.14.39.21.13.07.26.13.4.2.02.01.05.02.07.03-3.75.29-7.17.81-10.25,1.54Zm5.92-7.35l.66-5.31,5.41-2.27,4.66,3.54-.73,5.81-4.95,2.08c-1.93-.95-3.65-2.26-5.06-3.86Zm12.24,5.52c-1.97,0-3.85-.35-5.6-.99l3.84-1.62,3.33,2.53c-.52.05-1.05.08-1.58.08Zm9.11-2.78c-1.73,1.17-3.7,2.01-5.82,2.44l-4.3-3.26.73-5.81,5.4-2.27,4.66,3.54-.67,5.36Zm1.38-1.04l.52-4.17,3.9-1.64c-1.03,2.26-2.55,4.24-4.42,5.81Zm.04-5.31l-4.66-3.54.73-5.82,5.4-2.27,4.33,3.28c.02.37.04.74.04,1.11,0,1.79-.29,3.52-.82,5.13l-5.01,2.11Z"/><path class="cls-1" d="m109.5,52.86c0-7.44,4.47-11.97,10.59-11.97,3.2,0,5.3,1.45,6.65,2.84l-1.61,1.91c-1.17-1.21-2.65-2.18-4.96-2.18-4.65,0-7.63,3.57-7.63,9.32s2.74,9.43,7.66,9.43c1.65,0,3.25-.5,4.16-1.35v-6h-4.88v-2.43h7.56v9.69c-1.48,1.55-4.01,2.68-7.11,2.68-6.08,0-10.42-4.44-10.42-11.93Zm25.38-5.57h2.39l.24,3.11h.1c1.19-2.17,2.93-3.53,4.86-3.53.76,0,1.29.1,1.82.35l-.54,2.54c-.59-.19-.97-.28-1.66-.28-1.44,0-3.17,1.04-4.32,3.93v10.97h-2.89v-17.08Zm14.6,10.82v-10.82h2.89v10.45c0,3.18.96,4.54,3.22,4.54,1.75,0,2.96-.87,4.57-2.88v-12.11h2.89v17.08h-2.39l-.24-2.67h-.1c-1.58,1.86-3.29,3.1-5.63,3.1-3.6,0-5.22-2.32-5.22-6.68Zm1.79-16.12c0-.98.74-1.75,1.75-1.75s1.75.76,1.75,1.75-.74,1.75-1.75,1.75-1.75-.76-1.75-1.75Zm6.77,0c0-.98.74-1.75,1.75-1.75s1.75.76,1.75,1.75-.74,1.75-1.75,1.75-1.75-.76-1.75-1.75Zm13.42,5.3h2.39l.24,2.48h.1c1.49-1.61,3.28-2.9,5.32-2.9,2.61,0,4.01,1.25,4.72,3.26,1.77-1.92,3.55-3.26,5.63-3.26,3.51,0,5.2,2.32,5.2,6.68v10.82h-2.89v-10.45c0-3.18-1.01-4.54-3.18-4.54-1.32,0-2.7.87-4.28,2.62v12.37h-2.89v-10.45c0-3.18-1.01-4.54-3.18-4.54-1.28,0-2.7.87-4.28,2.62v12.37h-2.89v-17.08Zm42.2,13.21c0-1.75.14-7.07.19-10.81h-6.07c0,4.78-.51,10.09-.99,14.86l-2.93-.17c.77-4.82,1.22-10.08,1.22-14.68h-3.95v-2.23l2.45-.17h16.49v2.4h-3.43c-.21,3.87-.26,9.37-.26,11.02,0,1.19.52,1.68,1.59,1.68.31,0,.74-.07,1.38-.19l.39,2.21c-.59.19-1.36.38-2.36.38-2.69,0-3.72-1.52-3.72-4.3Z"/></g></g></svg>