<?xml version="1.0" encoding="UTF-8"?><svg id="Ebene_2" xmlns="http://www.w3.org/2000/svg" viewBox="0 0 100 100"><defs><style>.cls-1{fill:#fff;}.cls-2{fill:#111;}</style></defs><g id="Ebene_1-2"><g><rect class="cls-2" width="100" height="100"/><path class="cls-1" d="m29.29,75.61c0-2.9,1.75-4.67,4.13-4.67,1.25,0,2.07.57,2.6,1.11l-.63.75c-.46-.47-1.03-.85-1.94-.85-1.81,0-2.98,1.39-2.98,3.64s1.07,3.68,2.99,3.68c.65,0,1.27-.19,1.62-.53v-2.34h-1.91v-.95h2.95v3.78c-.58.6-1.56,1.05-2.77,1.05-2.38,0-4.07-1.73-4.07-4.66Zm9.56-2.17h.93l.1,1.21h.04c.46-.85,1.15-1.38,1.9-1.38.3,0,.5.04.71.14l-.21.99c-.23-.07-.38-.11-.65-.11-.56,0-1.24.41-1.69,1.53v4.28h-1.13v-6.67Zm5.35,4.22v-4.22h1.13v4.08c0,1.24.38,1.77,1.26,1.77.68,0,1.15-.34,1.78-1.12v-4.73h1.13v6.67h-.93l-.1-1.04h-.04c-.62.73-1.28,1.21-2.2,1.21-1.4,0-2.04-.91-2.04-2.61Zm.7-6.29c0-.38.29-.68.68-.68s.68.3.68.68-.29.68-.68.68-.68-.3-.68-.68Zm2.64,0c0-.38.29-.68.68-.68s.68.3.68.68-.29.68-.68.68-.68-.3-.68-.68Zm4.9,2.07h.93l.1.97h.04c.58-.63,1.28-1.13,2.07-1.13,1.02,0,1.57.49,1.84,1.27.69-.75,1.39-1.27,2.2-1.27,1.37,0,2.03.91,2.03,2.61v4.22h-1.13v-4.08c0-1.24-.39-1.77-1.24-1.77-.52,0-1.05.34-1.67,1.02v4.83h-1.13v-4.08c0-1.24-.39-1.77-1.24-1.77-.5,0-1.05.34-1.67,1.02v4.83h-1.13v-6.67Zm16.13,5.15c0-.68.05-2.76.07-4.22h-2.37c0,1.87-.2,3.94-.39,5.8l-1.15-.07c.3-1.88.48-3.93.48-5.73h-1.54v-.87l.96-.06h6.44v.94h-1.34c-.08,1.51-.1,3.66-.1,4.3,0,.47.2.66.62.66.12,0,.29-.03.54-.07l.15.86c-.23.08-.53.15-.92.15-1.05,0-1.45-.59-1.45-1.68Z"/><path class="cls-1" d="m58.87,11.01c-.25,0-.5,0-.74,0h-.03c-7.89.1-15.3,3.25-20.85,8.87-5.57,5.63-8.63,13.09-8.63,21.01,0,6.64,2.13,12.92,6.15,18.16l1.17-.85c-1.99-2.92-3.51-7.58-1.84-11.89,1.5-3.86,5.38-6.71,11.24-8.27v21.01h1.45v-21.36c3.33-.73,7.27-1.11,11.71-1.11,2.07,0,4.03-.49,5.76-1.37v23.83h1.45v-24.69c3.37-2.31,5.59-6.18,5.59-10.56,0-6.97-5.45-12.59-12.41-12.79Zm8.83,6.12c.99,1.37,1.68,2.97,1.97,4.72l-2.34-1.78.37-2.94Zm-.75-.93l-.47,3.76-3.74,1.57-3.24-2.46.51-4.03,3.48-1.46c1.33.64,2.5,1.53,3.47,2.61Zm-7.58,3.86l2.45,1.86.39.3-.06.49h0s-.39,3.05-.39,3.05l-.06.49-.46.19-2.83,1.19-.46.19-.39-.3-2.45-1.85-.39-.3.06-.49.38-3.05.06-.49.45-.19,2.83-1.19.46-.19.39.3Zm-.27-1.28h0s0,0,0,0h0Zm-.94-6.33h0c.1,0,.2,0,.31,0h.02c.11,0,.23,0,.33,0,1.25.04,2.44.27,3.55.67l-2.71,1.14-2.31-1.76c.27-.03.53-.04.81-.05Zm.99,2.49l-.51,4.03-3.75,1.57-3.23-2.45.47-3.72c1.2-.81,2.56-1.39,4.04-1.69l2.98,2.26Zm-11.97,9.66c-.02-.27-.03-.53-.03-.8,0-1.25.2-2.45.57-3.57l3.43-1.45,3.23,2.45-.5,4.03-3.75,1.58-2.95-2.24Zm2.44,2.92l-.36,2.85c-.96-1.34-1.63-2.9-1.93-4.59l2.29,1.74Zm1.2-9.54l-2.67,1.13c.7-1.56,1.74-2.94,3.04-4.02l-.37,2.89Zm-4.92,18.43c-8.65,2.05-11.92,6.23-13.15,9.38-.69,1.79-.9,3.63-.78,5.39-1.26-3.25-1.91-6.71-1.91-10.29,0-12.97,8.84-24.03,20.81-27.39-.15.11-.31.23-.45.35-.08.07-.16.13-.23.19-.08.07-.15.13-.23.2-.22.2-.44.41-.65.63-.07.07-.14.14-.21.22-.27.29-.53.6-.77.92-.05.07-.1.13-.15.2-.4.54-.76,1.12-1.07,1.72-.06.11-.11.22-.16.33-.15.3-.27.6-.39.91-.03.09-.07.17-.1.26-.11.3-.21.61-.29.92-.03.12-.07.25-.09.37-.03.09-.05.19-.07.29-.01.08-.03.16-.05.24-.02.11-.04.21-.06.31-.02.11-.04.21-.05.31-.02.12-.03.24-.05.36-.03.2-.04.39-.06.59,0,.08-.01.17-.02.25v.33c-.01.13-.02.26-.02.4,0,.13,0,.25,0,.38,0,.09,0,.17,0,.25,0,0,0,.02,0,.03.01.22.03.43.05.65,0,.06.01.12.02.17.02.13.03.26.05.39,0,.03,0,.06.01.08.02.13.04.26.07.38.02.13.05.26.07.39.07.32.15.64.25.95.04.15.09.29.14.43.1.3.21.59.34.88.05.12.11.25.17.37.07.16.15.31.23.47.06.11.11.22.18.33.07.13.14.26.22.39.15.26.31.51.48.75.18.26.37.51.57.76.08.1.16.2.25.29.57.67,1.22,1.29,1.93,1.82.11.08.21.16.32.24.02.01.04.03.06.04.11.08.23.16.34.23.1.07.21.14.31.2.21.13.43.25.64.37.09.05.18.09.27.14.09.05.18.09.28.14.01,0,.03.02.05.02-2.6.2-4.97.56-7.11,1.07Zm4.11-5.1l.46-3.68,3.75-1.58,3.23,2.45-.51,4.03-3.43,1.45c-1.34-.66-2.53-1.57-3.51-2.67Zm8.49,3.83c-1.36,0-2.67-.24-3.88-.69l2.67-1.12,2.31,1.75c-.36.04-.73.05-1.09.05Zm6.32-1.93c-1.2.81-2.57,1.39-4.04,1.69l-2.98-2.26.51-4.03,3.74-1.57,3.23,2.45-.47,3.72Zm.95-.72l.36-2.89,2.7-1.13c-.71,1.57-1.77,2.94-3.07,4.03Zm.03-3.68l-3.23-2.45.51-4.03,3.74-1.57,3,2.27c.02.25.03.51.03.77,0,1.24-.2,2.44-.57,3.56l-3.47,1.46Z"/><path class="cls-1" d="m43.56,88.77c.91-.88,1.48-1.46,1.48-1.96,0-.34-.19-.56-.54-.56-.25,0-.46.17-.64.36l-.33-.33c.3-.32.6-.51,1.05-.51.63,0,1.03.4,1.03,1s-.54,1.18-1.19,1.86c.17-.02.39-.03.55-.03h.8v.5h-2.21v-.34Zm3.68-1.31c0-1.11.43-1.69,1.11-1.69s1.11.58,1.11,1.69-.43,1.71-1.11,1.71-1.11-.61-1.11-1.71Zm1.66,0c0-.93-.23-1.22-.55-1.22s-.55.29-.55,1.22.23,1.25.55,1.25.55-.32.55-1.25Zm2,1.31c.91-.88,1.48-1.46,1.48-1.96,0-.34-.19-.56-.54-.56-.25,0-.46.17-.64.36l-.33-.33c.3-.32.6-.51,1.05-.51.63,0,1.03.4,1.03,1s-.54,1.18-1.19,1.86c.17-.02.39-.03.55-.03h.8v.5h-2.21v-.34Zm3.59-.06l.28-.38c.2.2.45.36.78.36.36,0,.6-.19.6-.49,0-.34-.22-.56-.96-.56v-.43c.64,0,.85-.22.85-.52,0-.27-.18-.44-.48-.44-.25,0-.46.12-.65.31l-.31-.37c.28-.25.59-.41.99-.41.63,0,1.06.31,1.06.87,0,.37-.22.61-.57.75v.02c.39.1.68.38.68.82,0,.6-.52.94-1.15.94-.53,0-.88-.2-1.11-.46Z"/></g></g></svg>