<svg width="122.88" height="122.88" xmlns="http://www.w3.org/2000/svg" xml:space="preserve" version="1.1">
 <g>
  <title>Layer 1</title>
  <ellipse stroke="#000" ry="61.2856" rx="60.42846" id="svg_5" cy="61.27406" cx="61.29714" fill="#FFF5FF"/>
  <g id="svg_1">
   <path id="svg_2" clip-rule="evenodd" fill-rule="evenodd" d="m61.44,0c16.97,0 32.33,6.88 43.44,18c11.12,11.12 18,26.48 18,43.44c0,16.97 -6.88,32.33 -18,43.44c-11.12,11.12 -26.48,18 -43.44,18s-32.33,-6.88 -43.44,-18c-11.12,-11.11 -18,-26.47 -18,-43.44c0,-16.97 6.88,-32.33 18,-43.44c11.11,-11.12 26.47,-18 43.44,-18l0,0zm15.41,117.08l-0.12,-0.08l6.89,-23.09l-14.21,-15.76l-16.75,-0.15l-13.28,16.62l6.66,22.32l-0.15,0.1c4.95,1.38 10.16,2.12 15.55,2.12c5.34,0 10.51,-0.72 15.41,-2.08l0,0zm-64.63,-25.47l24.34,0.12l12.72,-15.93l-5.26,-16.12l-21.42,-9.3l-18.82,13.7c0.45,10.06 3.48,19.45 8.44,27.53l0,0zm4.55,-66.73l7.4,22.14l19.98,8.68l15.44,-11.97l0,-22.79l-19.08,-13.31c-7.52,2.93 -14.28,7.39 -19.89,13c-1.35,1.35 -2.64,2.77 -3.85,4.25l0,0zm64.93,-17.51l-18.4,13.4l0,22.93l14.5,11.21l20.81,-8.92l7.18,-21.49c-1.12,-1.35 -2.3,-2.64 -3.54,-3.88c-5.77,-5.77 -12.76,-10.33 -20.55,-13.25l0,0zm37.39,56.99l-0.02,0.01l-19.98,-14.55l-19.81,8.49l-6.08,18.03l13.73,15.23c0.06,0.06 0.09,0.13 0.11,0.21l23.6,-0.11c4.92,-8.02 7.95,-17.33 8.45,-27.31l0,0z" class="st0"/>
  </g>
  <ellipse fill="#FFF5FF" cx="61.25036" cy="61.25036" id="svg_7" rx="39.71091" ry="40.38398" stroke-width="0" stroke="#000"/>
  <text style="cursor: move;" fill="#000000" stroke="#000" stroke-width="0" x="33.92382" y="88.94223" id="svg_3" font-size="80" font-family="sans-serif" text-anchor="start" xml:space="preserve" font-weight="bold" font-style="normal">C</text>
 </g>

</svg>