<svg width="122.88" height="122.88" xmlns="http://www.w3.org/2000/svg" xml:space="preserve" version="1.1">

 <g>
  <title>Layer 1</title>
  <rect transform="rotate(-136 61.7803 61.9768)" stroke="#000" id="svg_3" height="38" width="117.36542" y="42.97682" x="3.09759" fill="#fff"/>
  <g id="svg_1">
   <path id="svg_2" clip-rule="evenodd" fill-rule="evenodd" d="m3.52,16.22l12.7,-12.7c4.69,-4.69 12.37,-4.69 17.07,0l86.07,86.07c4.69,4.69 4.69,12.37 0,17.07l-12.7,12.7c-4.69,4.69 -12.37,4.69 -17.07,0l-86.07,-86.07c-4.69,-4.7 -4.69,-12.38 0,-17.07l0,0zm79.51,75.85c1.22,-1.22 3.19,-1.22 4.41,0c0.66,0.66 0.96,1.53 0.91,2.39c0.02,0.82 -0.29,1.64 -0.91,2.27c-1.22,1.22 -3.19,1.22 -4.41,0c-0.65,-0.66 -0.96,-1.53 -0.91,-2.39c-0.01,-0.82 0.29,-1.65 0.91,-2.27l0,0zm-42.63,-36.39l15.28,-15.28c0.78,-0.78 2.05,-0.78 2.83,0l23.97,23.97c0.78,0.78 0.78,2.05 0,2.83l-15.28,15.28c-0.78,0.78 -2.05,0.78 -2.83,0l-23.97,-23.97c-0.78,-0.78 -0.78,-2.05 0,-2.83l0,0zm-10.69,-15.12c-1.15,0.51 -2.54,0.3 -3.48,-0.64c-1.22,-1.22 -1.22,-3.19 0,-4.41c0.32,-0.32 0.7,-0.56 1.11,-0.71c1.15,-0.51 2.54,-0.3 3.48,0.64c1.22,1.22 1.22,3.19 0,4.41c-0.33,0.33 -0.71,0.56 -1.11,0.71l0,0zm-7.28,-12.02c0.02,0.82 -0.29,1.64 -0.91,2.27c-1.22,1.22 -3.19,1.22 -4.41,0c-0.66,-0.66 -0.96,-1.53 -0.91,-2.39c-0.02,-0.82 0.29,-1.64 0.91,-2.27c1.22,-1.22 3.19,-1.22 4.41,0c0.66,0.65 0.96,1.53 0.91,2.39l0,0zm17.5,-2.32c0.58,0.58 0.89,1.34 0.91,2.11c0.05,0.86 -0.25,1.74 -0.91,2.4c-1.22,1.22 -3.19,1.22 -4.41,0c-0.58,-0.58 -0.89,-1.34 -0.91,-2.11c-0.05,-0.86 0.25,-1.74 0.91,-2.4c1.22,-1.21 3.19,-1.21 4.41,0l0,0zm-9.12,-9.12c1.22,1.22 1.22,3.19 0,4.41c-0.96,0.96 -2.38,1.16 -3.53,0.62c-0.38,-0.15 -0.74,-0.38 -1.05,-0.69c-1.22,-1.22 -1.22,-3.19 0,-4.41c0.96,-0.95 2.38,-1.16 3.53,-0.62c0.39,0.16 0.74,0.39 1.05,0.69l0,0zm64.82,89.39c-1.15,0.51 -2.54,0.3 -3.48,-0.64c-1.22,-1.22 -1.22,-3.19 0,-4.41c0.33,-0.33 0.7,-0.56 1.11,-0.71c1.15,-0.51 2.54,-0.3 3.48,0.64c1.22,1.22 1.22,3.19 0,4.41c-0.33,0.32 -0.71,0.55 -1.11,0.71l0,0zm10.22,-14.35c0.58,0.58 0.89,1.34 0.91,2.11c0.06,0.86 -0.25,1.74 -0.91,2.4c-1.22,1.22 -3.19,1.22 -4.41,0c-0.58,-0.58 -0.89,-1.34 -0.91,-2.11c-0.05,-0.86 0.25,-1.74 0.91,-2.4c1.22,-1.21 3.2,-1.21 4.41,0l0,0zm-9.12,-9.12c1.22,1.22 1.22,3.19 0,4.41c-0.95,0.95 -2.38,1.16 -3.53,0.62c-0.38,-0.15 -0.74,-0.38 -1.05,-0.69c-1.22,-1.22 -1.22,-3.19 0,-4.41c0.96,-0.96 2.38,-1.16 3.53,-0.62c0.39,0.16 0.74,0.39 1.05,0.69l0,0z" class="st0"/>
  </g>
 </g>
</svg>